<svg id="Livello_1" data-name="Livello 1" xmlns="http://www.w3.org/2000/svg" viewBox="0 0 128 128"><defs><style>.cls-1{fill:#b2b2b2;}.cls-2{fill:#fff;}.cls-3{fill:none;stroke:#b2b2b2;stroke-linejoin:round;}</style></defs><rect class="cls-1" x="63.82" y="9.92" width="2.62" height="52.06" transform="translate(130.27 71.9) rotate(180)"/><rect class="cls-1" x="50.74" y="9.92" width="28.78" height="5.27" transform="translate(130.27 25.12) rotate(180)"/><circle class="cls-2" cx="65.13" cy="81.62" r="11.71"/><path class="cls-1" d="M58.92,59.2H71.34a0,0,0,0,1,0,0V66a2.24,2.24,0,0,1-2.24,2.24H61.17A2.24,2.24,0,0,1,58.92,66V59.2A0,0,0,0,1,58.92,59.2Z" transform="translate(130.27 127.47) rotate(180)"/><path class="cls-2" d="M76.84,81.62a14.14,14.14,0,0,0-.92-4.56c-.89-2.17-5.75-8.79-5.75-8.79H60.1s-4.87,6.62-5.75,8.79a14.14,14.14,0,0,0-.92,4.56Z"/><path class="cls-1" d="M80.21,66.87l11,16.85v22.37l-2,11H37.88l-1.09-11V83.72l11-16.85H80.21m.54-1H47.25L35.79,83.43v22.75L37,118.08H90.06l2.15-11.9V83.43L80.75,65.87Z"/><polyline class="cls-3" points="73.44 83.79 63.77 66.28 55.03 83.64 47.53 66.51 39.96 83.47 38.21 79.71"/><line class="cls-3" x1="80.5" y1="66.48" x2="73.44" y2="83.79"/><line class="cls-3" x1="35.79" y1="100.38" x2="92.21" y2="100.99"/><polyline class="cls-3" points="37.25 115.9 38.28 117.72 47.25 100.22 56.48 117.32 64.24 100.74 76.19 117.27 83.13 101.35 90.06 118.08"/><polyline class="cls-3" points="36.41 83.43 91.44 84.03 83.04 100.66 73.44 84.04 64.24 100.74 55.03 83.64 47.25 100.22 39.96 83.47 36.22 92.42"/></svg>