<svg id="Livello_1" data-name="Livello 1" xmlns="http://www.w3.org/2000/svg" viewBox="0 0 128 128"><defs><style>.cls-1{fill:#b2b2b2;}.cls-2{fill:#ffde00;}.cls-3{fill:#dadada;}.cls-4{fill:none;stroke:#b2b2b2;stroke-miterlimit:10;}</style></defs><rect class="cls-1" x="62.69" y="7.47" width="2.62" height="52.06" transform="translate(127.99 67) rotate(180)"/><rect class="cls-1" x="49.61" y="7.47" width="28.78" height="5.27" transform="translate(127.99 20.21) rotate(180)"/><circle class="cls-2" cx="63.85" cy="85.47" r="9.01"/><path class="cls-3" d="M59,58.45H69a0,0,0,0,1,0,0V70.61a2.58,2.58,0,0,1-2.58,2.58H61.53A2.58,2.58,0,0,1,59,70.61V58.45A0,0,0,0,1,59,58.45Z" transform="translate(127.99 131.63) rotate(180)"/><path class="cls-3" d="M72.85,85.47a10.82,10.82,0,0,0-.7-3.5c-.68-1.67-4.43-8.79-4.43-8.79H60S56.23,80.3,55.55,82a11,11,0,0,0-.71,3.5Z"/><polygon class="cls-4" points="76.39 50.8 51.61 50.8 36.59 64.16 36.59 107.17 51.61 120.53 76.39 120.53 91.41 107.17 91.41 64.16 76.39 50.8"/><polyline class="cls-4" points="51.61 50.8 36.59 64.31 63.85 107.05 55.73 120.53"/><polyline class="cls-4" points="36.59 78.77 55.85 107.05 51.61 120.53"/><polyline class="cls-4" points="36.59 91.57 48.77 107.05 51.61 120.53"/><polyline class="cls-4" points="36.59 101.64 43.21 107.05 51.61 120.53"/><polyline class="cls-4" points="76.39 50.8 77.78 64.31 91.41 88.96"/><polyline class="cls-4" points="76.39 50.8 85.82 64.31 91.41 74.43"/><polyline class="cls-4" points="64 120.53 72.11 107.05 44.85 64.31 54.71 50.8"/><polyline class="cls-4" points="70.05 120.53 80.78 107.05 53.51 64.31 58.48 50.8"/><polyline class="cls-4" points="76.39 120.53 89.12 107.05 61.86 64.31 64 50.8"/><polyline class="cls-4" points="69.5 50.8 69.5 64.31 91.41 101.31"/><polyline class="cls-4" points="64 50.8 57.03 65.18 57.03 107.63 55.73 120.53"/><polyline class="cls-4" points="58.48 50.8 48.85 65.18 48.85 107.63 54.37 120.53"/><polyline class="cls-4" points="70.82 56.64 76.39 50.8 87.12 65.18 87.12 107.63 76.39 120.53"/><polyline class="cls-4" points="51.61 120.53 39.46 107.63 39.46 65.18 51.61 50.8 59.87 56.56"/><polyline class="cls-4" points="76.39 50.8 72.73 65.18 72.73 107.63 70.05 120.53"/><polyline class="cls-4" points="76.39 50.8 80.38 65.18 80.38 107.63 76.39 120.53"/><polyline class="cls-4" points="69.5 50.8 64.39 65.18 64.39 107.63 64 120.53"/></svg>