<svg id="Livello_1" data-name="Livello 1" xmlns="http://www.w3.org/2000/svg" viewBox="0 0 128 128"><defs><style>.cls-1{fill:#dadada;}.cls-2{fill:#fff;}.cls-3{fill:#b2b2b2;}</style></defs><rect class="cls-1" x="62.49" y="17.45" width="2.62" height="53.37" transform="translate(127.6 88.26) rotate(180)"/><rect class="cls-1" x="49.41" y="17.45" width="28.78" height="5.27" transform="translate(127.6 40.16) rotate(180)"/><circle class="cls-2" cx="63.8" cy="101.55" r="9.01"/><path class="cls-3" d="M57.59,70.66H70a0,0,0,0,1,0,0v15a3.17,3.17,0,0,1-3.17,3.17H60.77a3.17,3.17,0,0,1-3.17-3.17v-15A0,0,0,0,1,57.59,70.66Z" transform="translate(127.6 159.46) rotate(180)"/><path class="cls-1" d="M72.81,101.55A11.07,11.07,0,0,0,72.1,98c-.68-1.67-4.43-8.78-4.43-8.78H59.93S56.18,96.37,55.5,98a10.91,10.91,0,0,0-.7,3.51Z"/><polygon class="cls-3" points="96.29 102.81 31.71 102.81 44.83 62.01 83.17 62.01 96.29 102.81"/></svg>