<svg id="Livello_1" data-name="Livello 1" xmlns="http://www.w3.org/2000/svg" viewBox="0 0 128 128"><defs><style>.cls-1{fill:#b2b2b2;}.cls-2{fill:#ffde00;}.cls-3{fill:#dadada;}.cls-4{fill:#ffea87;}</style></defs><rect class="cls-1" x="63.14" y="41.02" width="1.71" height="82.44"/><rect class="cls-1" x="44.08" y="121.32" width="39.84" height="2.14"/><ellipse class="cls-2" cx="64" cy="22.09" rx="8.67" ry="8.82"/><path class="cls-1" d="M61.54,34.73h4.92a0,0,0,0,1,0,0v5.94a1.26,1.26,0,0,1-1.26,1.26H62.8a1.26,1.26,0,0,1-1.26-1.26V34.73A0,0,0,0,1,61.54,34.73Z"/><path class="cls-3" d="M55.33,22.09A10.72,10.72,0,0,0,56,25.52c.65,1.64,5.53,9.21,5.53,9.21h4.92s4.88-7.57,5.53-9.21a10.72,10.72,0,0,0,.68-3.43Z"/><polygon class="cls-4" points="66.97 32.14 64.39 4.54 61.63 4.54 59.04 32.54 60.39 45.47 65.58 45.47 66.97 32.14"/><polygon class="cls-4" points="57.99 32.57 60.57 4.54 60.1 4.54 53.48 32.18 57.26 45.47 59.33 45.47 57.99 32.57"/><polygon class="cls-4" points="41.26 32.08 45.07 37.15 42.24 32.31 53.95 4.54 52.91 4.54 41.26 32.08"/><polygon class="cls-4" points="56.94 4.54 55.07 4.54 43.41 32.13 50.83 44.81 51.32 45.47 51.82 45.47 47.27 32.25 47.32 32.05 56.94 4.54"/><polygon class="cls-4" points="52.39 32.26 52.42 32.1 59.02 4.54 58.04 4.54 48.38 32.18 52.96 45.47 56.15 45.47 52.39 32.26"/><polygon class="cls-4" points="74.12 32.19 66.49 4.54 65.45 4.54 68.02 32.17 66.65 45.47 70.34 45.47 74.12 32.19"/><polygon class="cls-4" points="81.91 38 86.74 32.07 75.1 4.54 73.52 4.54 85.23 32.31 81.91 38"/><polygon class="cls-4" points="78.52 32.18 68.86 4.54 67.57 4.54 75.21 32.25 75.17 32.41 71.45 45.47 73.94 45.47 78.52 32.18"/><polygon class="cls-4" points="79.63 32.25 75.08 45.47 75.83 45.47 77.38 43.57 84.06 32.13 72.41 4.54 69.96 4.54 79.63 32.25"/><polygon class="cls-3" points="76.93 45.47 51.07 45.51 51.07 44.85 76.93 44.81 76.93 45.47"/><rect class="cls-3" x="52.41" y="4.54" width="23.17" height="0.66"/></svg>