<svg id="Livello_1" data-name="Livello 1" xmlns="http://www.w3.org/2000/svg" viewBox="0 0 128 128"><defs><style>.cls-1{fill:#ffde00;}.cls-2{fill:#b2b2b2;}.cls-3{fill:#dadada;}</style></defs><circle class="cls-1" cx="64" cy="51.88" r="24.52"/><rect class="cls-2" x="53.95" y="86.08" width="20.1" height="3.83"/><path class="cls-3" d="M39.48,51.88a29.73,29.73,0,0,0,1.93,9.54C43.26,66,53.46,85.33,53.46,85.33H74.54s10.2-19.36,12-23.91a29.73,29.73,0,0,0,1.93-9.54Z"/><rect class="cls-2" x="53.95" y="90.76" width="20.1" height="3.83"/><path class="cls-2" d="M58.65,95.44a5.21,5.21,0,0,0,10.41,0Z"/><path class="cls-1" d="M94.26,34.5a19.76,19.76,0,0,0-8.56,1.94,24.44,24.44,0,0,1,5.48,15.44V52a24.44,24.44,0,0,1-1.92,9.46c-.72,1.75-2.68,5.72-4.82,9.93A19.74,19.74,0,1,0,94.26,34.5Z"/><rect class="cls-2" x="86.16" y="81.78" width="16.19" height="3.08"/><path class="cls-3" d="M91.06,54.24a24.35,24.35,0,0,1-1.81,7.19c-.93,2.26-3.92,8.2-6.69,13.59,1.77,3.43,3.21,6.16,3.21,6.16h17s8.2-15.6,9.7-19.25A24.17,24.17,0,0,0,114,54.24Z"/><rect class="cls-2" x="86.16" y="85.54" width="16.19" height="3.08"/><path class="cls-2" d="M90,89.31a4.19,4.19,0,0,0,8.38,0Z"/><path class="cls-1" d="M38.75,61.43A24.44,24.44,0,0,1,36.83,52v-.09A24.44,24.44,0,0,1,42.3,36.44a19.75,19.75,0,1,0,1.27,34.92C41.43,67.15,39.47,63.18,38.75,61.43Z"/><rect class="cls-2" x="25.65" y="81.78" width="16.19" height="3.08"/><path class="cls-3" d="M38.75,61.43a24.35,24.35,0,0,1-1.81-7.19H14a24.17,24.17,0,0,0,1.55,7.69c1.5,3.65,9.7,19.25,9.7,19.25h17s1.44-2.73,3.21-6.16C42.67,69.63,39.68,63.69,38.75,61.43Z"/><rect class="cls-2" x="25.65" y="85.54" width="16.19" height="3.08"/><path class="cls-2" d="M29.43,89.31a4.2,4.2,0,0,0,8.39,0Z"/></svg>