<svg id="Livello_1" data-name="Livello 1" xmlns="http://www.w3.org/2000/svg" viewBox="0 0 128 128"><defs><style>.cls-1{fill:#b2b2b2;}.cls-2{fill:none;stroke-width:1.28px;}.cls-2,.cls-3,.cls-4,.cls-5,.cls-6,.cls-7,.cls-8,.cls-9{stroke:#fff;stroke-linecap:round;stroke-linejoin:round;}.cls-3,.cls-4,.cls-5,.cls-6,.cls-7,.cls-8,.cls-9{fill:#dadada;}.cls-3{stroke-width:1.54px;}.cls-4{stroke-width:1.54px;}.cls-5{stroke-width:1.54px;}.cls-6{stroke-width:1.54px;}.cls-7{stroke-width:1.54px;}.cls-8{stroke-width:1.54px;}.cls-9{stroke-width:1.54px;}</style></defs><path class="cls-1" d="M61.56,12.34H76.83c10.72,0,17.58,5.11,17.6,13.55,0,8.93-6.88,13.55-17.6,13.55l-30.66.15c-.4,0-3.63,0-3.63,1.56s3.23,1.56,3.6,1.56l31.15.14c10.68,0,17.58,4.58,17.56,13.56C94.84,65.6,88,70,77.26,70L51.17,70c-.37,0-3.6,0-3.6,1.56s3.23,1.57,3.63,1.57l30.66.14c10.71,0,15.6,7,15.6,13.55S92.57,100.4,81.89,100.4l-31.15.15c-.37,0-3.6,0-3.6,1.56s3.23,1.56,3.6,1.56h17a6,6,0,0,1,0,12h-17c-10.71,0-15.59-7-15.59-13.55S40,88.56,50.71,88.56l31.15-.15c.37,0,3.6,0,3.6-1.56s-3.23-1.56-3.63-1.56l-30.66-.14c-10.72,0-15.6-7-15.6-13.56S40.45,58,51.17,58L77.26,58c.37,0,3.6,0,3.6-1.56s-3.23-1.57-3.6-1.57L46.11,54.7c-10.68,0-15.57-7-15.57-13.55S35.43,27.6,46.14,27.6l30.66-.15c.4,0,3.63,0,3.63-1.56s-3.23-1.56-3.6-1.56H61.56"/><path class="cls-2" d="M67.73,109.67h-17c-6.25,0-9.6-3.39-9.6-7.56h0c0-4.18,3.35-7.56,9.6-7.56l31.12-.14c6.25,0,9.6-3.39,9.6-7.56h0c0-4.17-3.35-7.56-9.6-7.56l-30.69-.14c-6.25,0-9.6-3.38-9.6-7.56h0c0-4.17,3.35-7.56,9.6-7.56L79.45,64c6.25,0,9.6-3.39,9.6-7.56h0c0-4.18-3.35-7.56-9.6-7.56l-31.11-.14c-9.13-.16-11.78-3.39-11.78-7.56h0c0-4.17,3.62-7.79,11.78-7.56L79,33.45c6.25,0,9.6-3.38,9.6-7.56h0c0-4.17-3.35-7.56-9.6-7.56H63.75"/><circle class="cls-3" cx="49.31" cy="64.2" r="2.42"/><circle class="cls-4" cx="41.95" cy="73.52" r="2.42"/><circle class="cls-5" cx="52.34" cy="79.45" r="2.42"/><circle class="cls-6" cx="68.94" cy="18.5" r="2.42"/><circle class="cls-3" cx="81.88" cy="18.5" r="2.42"/><circle class="cls-4" cx="88.24" cy="27.81" r="2.42"/><circle class="cls-5" cx="77.86" cy="33.75" r="2.42"/><circle class="cls-7" cx="64.92" cy="33.75" r="2.42"/><circle class="cls-8" cx="51.65" cy="33.75" r="2.42"/><circle class="cls-4" cx="82.76" cy="48.98" r="2.42"/><circle class="cls-4" cx="76.9" cy="63.97" r="2.42"/><circle class="cls-9" cx="62.5" cy="63.97" r="2.42"/><circle class="cls-4" cx="88.24" cy="59.19" r="2.42"/><circle class="cls-5" cx="69.81" cy="48.55" r="2.42"/><circle class="cls-4" cx="56.55" cy="48.55" r="2.42"/><circle class="cls-4" cx="42.47" cy="47.94" r="2.42"/><circle class="cls-4" cx="37.76" cy="37.24" r="2.42"/><circle class="cls-7" cx="65.28" cy="79.45" r="2.42"/><circle class="cls-8" cx="78.54" cy="79.45" r="2.42"/><circle class="cls-4" cx="47.44" cy="94.68" r="2.42"/><circle class="cls-4" cx="53.3" cy="109.67" r="2.42"/><circle class="cls-9" cx="66.7" cy="109.67" r="2.42"/><circle class="cls-4" cx="41.95" cy="104.89" r="2.42"/><circle class="cls-5" cx="60.38" cy="94.25" r="2.42"/><circle class="cls-4" cx="73.65" cy="94.25" r="2.42"/><circle class="cls-4" cx="86.72" cy="93.64" r="2.42"/><circle class="cls-4" cx="90.44" cy="82.94" r="2.42"/></svg>