<svg id="Livello_1" data-name="Livello 1" xmlns="http://www.w3.org/2000/svg" viewBox="0 0 128 128"><defs><style>.cls-1{fill:#b2b2b2;}.cls-2,.cls-3{fill:none;stroke-miterlimit:10;}.cls-2{stroke:#dadada;stroke-width:10px;}.cls-3{stroke:#fff;stroke-width:3px;}.cls-4{fill:#dadada;}</style></defs><rect class="cls-1" x="24.62" y="24.62" width="78.77" height="78.77" rx="17.12"/><circle class="cls-2" cx="64" cy="64" r="20.43"/><circle class="cls-3" cx="64" cy="64" r="20.43"/><polygon class="cls-4" points="43.27 103.33 41.54 103.32 41.61 101.1 43.34 101.12 43.27 103.33"/><polygon class="cls-4" points="46.82 103.36 45.08 103.35 45.15 101.13 46.89 101.14 46.82 103.36"/><polygon class="cls-4" points="50.36 103.39 48.63 103.38 48.7 101.16 50.44 101.17 50.36 103.39"/><rect class="cls-4" x="77.6" y="101.14" width="1.74" height="2.22"/><rect class="cls-4" x="81.15" y="101.14" width="1.74" height="2.22"/><rect class="cls-4" x="84.69" y="101.14" width="1.74" height="2.22"/><rect class="cls-4" x="59.6" y="101.14" width="1.74" height="2.22"/><rect class="cls-4" x="63.15" y="101.14" width="1.74" height="2.22"/><rect class="cls-4" x="66.7" y="101.14" width="1.74" height="2.22"/></svg>