<svg id="Livello_1" data-name="Livello 1" xmlns="http://www.w3.org/2000/svg" viewBox="0 0 128 128"><defs><style>.cls-1{fill:#dadada;}.cls-2{fill:#36a9e1;}.cls-3{fill:#b2b2b2;}.cls-4,.cls-6{fill:none;stroke:#fff;stroke-miterlimit:10;}.cls-5{fill:#fff;}.cls-6{stroke-width:0.25px;}</style></defs><rect class="cls-1" x="24.62" y="9.84" width="78.77" height="108.41" rx="3.73"/><circle class="cls-2" cx="64" cy="18.89" r="5.5"/><circle class="cls-3" cx="64" cy="18.89" r="4.47"/><line class="cls-4" x1="103.38" y1="27.39" x2="24.62" y2="27.39"/><rect class="cls-5" x="29.5" y="22.03" width="17.58" height="1.44"/><line class="cls-6" x1="51.51" y1="27.35" x2="51.51" y2="9.84"/><rect class="cls-3" x="76.08" y="13.79" width="23.98" height="10.2"/><circle class="cls-2" cx="56.1" cy="23.48" r="0.91"/><rect class="cls-5" x="88.07" y="21.14" width="4.3" height="1.4"/><rect class="cls-5" x="93.36" y="21.14" width="4.3" height="1.4"/><rect class="cls-5" x="77.7" y="21.14" width="4.3" height="1.4"/><rect class="cls-5" x="82.9" y="21.14" width="4.3" height="1.4"/><rect class="cls-5" x="77.7" y="15.95" width="0.39" height="2.94"/><rect class="cls-5" x="78.84" y="17.03" width="0.39" height="1.86"/><rect class="cls-5" x="78.27" y="17.93" width="0.39" height="1.53" transform="translate(97.16 -59.77) rotate(90)"/><rect class="cls-5" x="78.27" y="16.46" width="0.39" height="1.53" transform="translate(95.69 -61.24) rotate(90)"/><rect class="cls-5" x="79.85" y="15.95" width="0.39" height="2.94"/><rect class="cls-5" x="80.99" y="15.95" width="0.39" height="2.94"/><rect class="cls-5" x="80.42" y="17.93" width="0.39" height="1.53" transform="translate(99.31 -61.92) rotate(90)"/><rect class="cls-5" x="80.42" y="15.38" width="0.39" height="1.53" transform="translate(96.76 -64.47) rotate(90)"/><circle class="cls-5" cx="64" cy="68" r="34.42"/><circle class="cls-2" cx="64" cy="68" r="31.51"/><path class="cls-5" d="M37.29,79a28.63,28.63,0,0,0,52.93,1.14,31.09,31.09,0,0,1-25.36-2.1C52.74,71.26,39.71,77.72,37.29,79Z"/></svg>