<svg id="Livello_1" data-name="Livello 1" xmlns="http://www.w3.org/2000/svg" viewBox="0 0 128 128"><defs><style>.cls-1{fill:#b2b2b2;}.cls-2,.cls-3,.cls-4,.cls-5,.cls-6,.cls-7,.cls-8{fill:none;stroke:#ffde00;stroke-linecap:round;stroke-linejoin:round;stroke-width:4px;}.cls-3{stroke-dasharray:0 13.04;}.cls-4{stroke-dasharray:0 17.24;}.cls-5{stroke-dasharray:0 14.46;}.cls-6{stroke-dasharray:0 12.71;}.cls-7{stroke-dasharray:0 13.46;}.cls-8{stroke-dasharray:0 8.75;}</style></defs><polygon class="cls-1" points="64 47.53 37.69 93.88 90.31 93.88 64 47.53"/><polygon class="cls-1" points="64 30.88 40.07 73.04 87.93 73.04 64 30.88"/><polygon class="cls-1" points="64 20.6 48.44 48.01 79.56 48.01 64 20.6"/><rect class="cls-1" x="61.6" y="91.26" width="4.8" height="16.14"/><line class="cls-2" x1="89.92" y1="97.6" x2="89.92" y2="97.6"/><line class="cls-3" x1="76.96" y1="96.18" x2="44.56" y2="92.63"/><line class="cls-2" x1="38.08" y1="91.92" x2="38.08" y2="91.92"/><line class="cls-4" x1="54.04" y1="85.38" x2="77.97" y2="75.56"/><line class="cls-2" x1="85.94" y1="72.29" x2="85.94" y2="72.29"/><line class="cls-5" x1="71.78" y1="69.38" x2="50.53" y2="65.02"/><line class="cls-2" x1="43.45" y1="63.56" x2="43.45" y2="63.56"/><line class="cls-6" x1="54.82" y1="57.89" x2="71.89" y2="49.38"/><line class="cls-2" x1="77.57" y1="46.55" x2="77.57" y2="46.55"/><line class="cls-7" x1="64.44" y1="43.59" x2="57.87" y2="42.12"/><line class="cls-2" x1="51.3" y1="40.64" x2="51.3" y2="40.64"/><line class="cls-8" x1="58.39" y1="35.52" x2="61.94" y2="32.96"/><line class="cls-2" x1="65.48" y1="30.4" x2="65.48" y2="30.4"/></svg>